<svg width="50" height="50" viewBox="0 0 50 50" fill="none" xmlns="http://www.w3.org/2000/svg">
<rect width="50" height="50" rx="4" fill="#684D94"/>
<path d="M42.3916 15.0227L35.3826 37.5964H29.8972C29.6266 37.6036 29.3629 37.5105 29.1569 37.335C28.9162 37.0972 28.7497 36.7947 28.6775 36.4642L25.4576 25.2105C25.299 24.7026 25.1577 24.2027 25.0337 23.7108C24.9098 23.2189 24.7974 22.7191 24.6968 22.2112C24.5938 22.7191 24.4823 23.2274 24.3589 23.7353C24.2354 24.2432 24.0939 24.7511 23.9345 25.2585L20.6691 36.4687C20.6078 36.7994 20.4283 37.0965 20.1642 37.3048C19.9001 37.5131 19.5694 37.6183 19.2334 37.6009H14.0095L7 15.0272H12.3989C12.8266 15.013 13.2483 15.131 13.6066 15.3651C13.9133 15.5643 14.1462 15.8586 14.2695 16.2029L16.534 26.3248C16.7226 27.095 16.8893 27.839 17.0339 28.5568C17.1785 29.2747 17.3088 29.9967 17.4248 30.7229C17.6134 29.9964 17.8134 29.2743 18.0247 28.5568C18.236 27.8393 18.4641 27.0938 18.7091 26.3203L21.539 16.1769C21.6613 15.8347 21.8901 15.5407 22.1918 15.3381C22.5245 15.1097 22.9206 14.9918 23.3241 15.0012H26.328C26.7556 14.9869 27.1772 15.1045 27.5357 15.3381C27.8426 15.538 28.076 15.8325 28.2006 16.1769L30.9 26.3203C31.1179 27.0905 31.3321 27.8378 31.5424 28.5623C31.7526 29.2868 31.9448 30.02 32.1187 30.7619C32.2354 30.0353 32.3732 29.3097 32.5322 28.5848C32.6911 27.86 32.8728 27.1051 33.077 26.3203L35.471 16.1984C35.5937 15.8565 35.8227 15.5629 36.1244 15.3606C36.4565 15.1315 36.8524 15.0133 37.2557 15.0227H42.3916Z" fill="white"/>
</svg>
